<?xml version="1.0" standalone="no"?>
<!DOCTYPE svg PUBLIC "-//W3C//DTD SVG 20010904//EN"
 "http://www.w3.org/TR/2001/REC-SVG-20010904/DTD/svg10.dtd">
<svg version="1.0" xmlns="http://www.w3.org/2000/svg"
 width="768.000000pt" height="768.000000pt" viewBox="0 0 768.000000 768.000000"
 preserveAspectRatio="xMidYMid meet">
<metadata>
Created by potrace 1.14, written by Peter Selinger 2001-2017
</metadata>
<g transform="translate(0.000000,768.000000) scale(0.100000,-0.100000)"
fill="#000000" stroke="none">
<path d="M1484 7598 c-4 -46 -6 -87 -4 -93 1 -5 4 -144 6 -308 2 -163 6 -302
9 -307 3 -6 2 -10 -3 -10 -6 0 -12 -20 -14 -45 -2 -35 0 -44 11 -40 10 4 12
-1 6 -22 -4 -16 -8 -73 -10 -127 -2 -55 -6 -122 -9 -150 -3 -28 -9 -172 -12
-321 -7 -313 -6 -276 -6 -480 1 -336 -14 -681 -31 -702 -5 -8 -5 -13 0 -13 10
0 5 -128 -7 -149 -4 -8 -3 -25 3 -38 8 -17 8 -33 -1 -56 -6 -18 -14 -104 -17
-192 -3 -88 -10 -232 -15 -320 -18 -317 -21 -382 -24 -483 -3 -86 -7 -106 -22
-118 -18 -14 -18 -14 0 -29 17 -13 18 -24 13 -117 -6 -105 -25 -188 -37 -167
-4 6 -11 -23 -15 -66 -6 -63 -4 -79 9 -88 8 -7 18 -24 22 -39 5 -22 3 -28 -10
-28 -16 0 -17 -8 -20 -158 -1 -23 -7 -46 -14 -51 -11 -6 -10 -19 2 -72 8 -35
11 -68 7 -74 -4 -5 -4 -23 0 -40 3 -16 7 -24 8 -17 0 7 6 10 11 7 13 -8 13
-95 1 -95 -5 0 -11 12 -13 28 -3 21 -6 15 -16 -28 -15 -69 -24 -303 -11 -295
5 4 9 -1 9 -9 0 -8 -3 -17 -8 -20 -13 -8 -14 -146 -1 -162 7 -8 9 -18 5 -21
-4 -4 -11 -1 -15 6 -6 9 -11 10 -15 2 -4 -6 -3 -11 2 -11 5 0 10 -20 10 -45 1
-25 4 -51 8 -57 4 -7 3 -8 -4 -4 -15 9 -15 5 -2 -28 5 -14 6 -26 2 -26 -4 0
-8 -16 -9 -35 -1 -26 3 -36 18 -40 20 -7 27 -25 9 -25 -5 0 -10 5 -10 10 0 6
-4 10 -10 10 -6 0 -10 -41 -10 -102 0 -80 -3 -105 -17 -120 -15 -17 -15 -18 2
-18 16 0 17 -6 10 -47 -18 -114 -21 -583 -3 -594 7 -4 6 -8 -2 -11 -15 -5 -23
-345 -9 -354 6 -3 6 -11 -1 -19 -6 -7 -12 -32 -13 -54 -2 -39 -1 -41 26 -41
17 0 26 -4 22 -11 -4 -6 -14 -8 -22 -5 -22 9 -36 -3 -22 -20 9 -11 8 -18 -1
-29 -17 -21 2 -44 22 -27 11 8 14 6 16 -11 4 -41 3 -62 -3 -85 -6 -26 -25 -20
-25 9 0 10 -3 19 -8 19 -4 0 -8 -54 -10 -120 -1 -76 1 -120 8 -120 6 0 10 33
10 81 0 60 3 80 13 76 8 -2 12 -28 12 -78 0 -77 -9 -114 -26 -104 -15 10 -10
-13 8 -35 15 -18 30 -20 120 -20 65 0 104 4 109 11 4 6 -2 45 -12 86 -18 72
-18 75 1 108 14 27 16 40 8 58 -23 50 -33 97 -27 122 6 25 7 25 25 9 11 -9 19
-27 20 -38 0 -12 3 -15 6 -8 3 7 1 20 -3 30 -4 9 -6 21 -5 25 1 5 -3 6 -8 2
-6 -3 -9 11 -8 34 0 22 4 38 8 35 7 -4 24 44 20 59 -1 5 3 6 8 3 16 -10 43 5
32 18 -12 14 10 62 26 59 5 -1 10 25 11 59 1 33 6 66 10 72 23 29 30 77 22
152 -9 78 -19 233 -23 329 -1 28 -5 55 -10 62 -4 6 -4 14 0 16 5 3 7 52 5 109
-5 129 -5 272 -1 408 2 58 2 176 1 263 -5 303 23 557 89 827 64 259 105 362
192 489 l31 45 -51 100 c-44 86 -51 107 -46 141 3 22 9 45 13 50 13 16 30 158
24 197 -7 39 8 57 31 38 11 -9 15 -3 19 32 14 106 27 1167 22 1818 -5 727 -9
890 -27 947 -6 18 -9 84 -8 146 1 62 -1 118 -4 125 -4 6 -3 13 3 17 5 3 7 17
4 31 -4 13 -1 31 6 39 10 12 9 16 -4 21 -16 6 -16 8 -1 24 12 13 13 19 4 22
-8 3 -9 9 -4 18 4 7 8 38 7 69 -1 31 4 66 10 79 10 19 9 25 -2 33 -10 6 -12
11 -4 17 6 4 11 34 12 67 1 33 5 93 8 133 l6 72 -210 0 -210 0 -8 -82z m73
-1524 c-3 -3 -12 -4 -19 -1 -8 3 -5 6 6 6 11 1 17 -2 13 -5z m43 -52 c0 -9
-44 -32 -62 -32 -18 0 12 28 35 33 12 2 23 5 25 6 1 0 2 -3 2 -7z m-23 -77
c13 -28 7 -31 -21 -10 -10 7 -15 18 -11 24 10 17 19 13 32 -14z m8 -58 c14
-11 15 -16 5 -22 -7 -4 -16 -2 -20 5 -4 6 -11 11 -16 10 -5 -1 -10 3 -12 9 -5
15 21 14 43 -2z m-25 -47 c0 -11 -7 -20 -15 -20 -15 0 -21 21 -8 33 12 13 23
7 23 -13z m10 -57 c-4 -50 0 -73 10 -73 6 0 10 7 10 15 0 8 5 15 10 15 6 0 10
-8 8 -17 -2 -12 4 -18 16 -18 11 0 21 -5 23 -12 3 -8 -8 -11 -35 -8 -38 3 -40
2 -37 -23 2 -15 0 -31 -3 -37 -11 -17 -11 -35 0 -41 6 -4 14 0 19 7 6 10 9 8
9 -8 0 -14 -6 -23 -15 -23 -11 0 -15 -12 -15 -45 0 -35 4 -45 17 -45 9 0 13
-3 9 -7 -4 -5 -13 -8 -19 -8 -5 0 -12 -6 -14 -12 -3 -7 2 -13 9 -13 8 0 20 6
27 13 10 8 12 8 7 0 -3 -6 -2 -14 3 -17 13 -8 -11 -57 -26 -52 -6 3 -14 -5
-17 -17 -7 -29 3 -36 19 -14 17 23 28 7 19 -28 -4 -18 -9 -23 -14 -15 -12 20
-26 4 -24 -27 2 -57 4 -63 22 -64 15 -1 15 -2 1 -6 -20 -5 -31 -71 -19 -111 5
-15 9 -21 9 -14 1 6 5 12 9 12 5 0 7 -25 4 -55 -3 -38 0 -60 9 -71 12 -15 11
-16 -8 -10 -18 6 -21 4 -16 -15 5 -18 3 -21 -10 -16 -9 3 -19 2 -22 -4 -4 -5
0 -12 8 -15 11 -4 13 -13 8 -32 -4 -15 -8 -72 -9 -126 -2 -96 -6 -116 -20
-116 -11 0 -9 184 2 192 6 4 6 11 -1 20 -6 8 -9 63 -7 143 1 74 -2 142 -8 158
-7 19 -7 31 0 40 6 7 10 46 8 90 -2 43 1 80 6 83 4 3 6 9 3 14 -12 19 -14 75
-3 87 7 8 7 30 2 60 -9 54 -12 152 -4 151 17 -1 18 6 6 46 -12 40 -12 44 3 38
14 -5 14 -4 2 11 -11 14 -11 20 -1 32 19 23 32 18 30 -12z m70 -33 c0 -5 -2
-10 -4 -10 -3 0 -8 5 -11 10 -3 6 -1 10 4 10 6 0 11 -4 11 -10z m-30 -89 c0
-6 -4 -13 -10 -16 -5 -3 -10 1 -10 9 0 9 5 16 10 16 6 0 10 -4 10 -9z m40 -26
c0 -8 -7 -15 -15 -15 -8 0 -15 7 -15 15 0 8 7 15 15 15 8 0 15 -7 15 -15z m-4
-62 c-10 -10 -19 5 -10 18 6 11 8 11 12 0 2 -7 1 -15 -2 -18z m-4 -68 c0 -5
-5 -11 -11 -13 -6 -2 -11 4 -11 13 0 9 5 15 11 13 6 -2 11 -8 11 -13z m8 -50
c0 -8 -4 -15 -10 -15 -5 0 -10 7 -10 15 0 8 5 15 10 15 6 0 10 -7 10 -15z m-6
-140 c-3 -120 -19 -139 -19 -23 -1 42 -3 80 -7 83 -7 7 14 55 23 49 3 -2 5
-51 3 -109z m-36 -69 c3 -12 -1 -17 -10 -14 -7 3 -15 13 -16 22 -3 12 1 17 10
14 7 -3 15 -13 16 -22z m26 -118 c4 -22 3 -38 -2 -38 -13 0 -24 44 -16 65 8
20 10 18 18 -27z m-38 -5 c-10 -10 -19 5 -10 18 6 11 8 11 12 0 2 -7 1 -15 -2
-18z m39 -52 c3 -5 1 -12 -5 -16 -5 -3 -10 1 -10 9 0 18 6 21 15 7z m-35 -190
c0 -6 -4 -13 -10 -16 -5 -3 -10 1 -10 9 0 9 5 16 10 16 6 0 10 -4 10 -9z m-4
-113 c-3 -13 -5 -29 -5 -35 -2 -30 -21 -10 -21 22 0 24 5 35 15 35 10 0 14 -7
11 -22z m31 -50 c-3 -8 -6 -5 -6 6 -1 11 2 17 5 13 3 -3 4 -12 1 -19z m-34
-28 c3 -13 0 -20 -9 -20 -8 0 -14 9 -14 20 0 11 4 20 9 20 5 0 11 -9 14 -20z
m7 -50 c0 -5 -4 -10 -10 -10 -5 0 -10 5 -10 10 0 6 5 10 10 10 6 0 10 -4 10
-10z m-50 -44 c0 -8 -4 -18 -10 -21 -5 -3 -10 3 -10 14 0 12 5 21 10 21 6 0
10 -6 10 -14z m31 -49 c-13 -13 -15 1 -4 30 7 17 8 17 11 -1 2 -10 -1 -23 -7
-29z m-36 -7 c3 -5 1 -10 -4 -10 -6 0 -11 5 -11 10 0 6 2 10 4 10 3 0 8 -4 11
-10z m45 -35 c0 -8 -4 -15 -10 -15 -5 0 -10 7 -10 15 0 8 5 15 10 15 6 0 10
-7 10 -15z m-40 -34 c0 -6 -4 -13 -10 -16 -5 -3 -10 1 -10 9 0 9 5 16 10 16 6
0 10 -4 10 -9z m67 -313 c-3 -8 -6 -5 -6 6 -1 11 2 17 5 13 3 -3 4 -12 1 -19z
m3 -38 c0 -5 -4 -10 -10 -10 -5 0 -10 5 -10 10 0 6 5 10 10 10 6 0 10 -4 10
-10z m0 -75 c0 -25 -5 -45 -10 -45 -6 0 -9 20 -8 45 0 25 5 45 10 45 4 0 8
-20 8 -45z m-4 -272 c-3 -104 -7 -226 -7 -273 -1 -47 -6 -94 -10 -105 -6 -12
-7 46 -4 145 2 91 5 222 5 293 0 88 3 127 11 127 9 0 10 -51 5 -187z m-10
-429 c-3 -9 -6 -32 -7 -52 0 -33 -1 -34 -9 -14 -11 26 -2 82 12 82 6 0 7 -7 4
-16z m-96 -59 c10 -12 10 -15 -4 -15 -9 0 -16 7 -16 15 0 8 2 15 4 15 2 0 9
-7 16 -15z m-5 -65 c-5 -8 -11 -8 -17 -2 -6 6 -7 16 -3 22 5 8 11 8 17 2 6 -6
7 -16 3 -22z m95 -5 c0 -14 -4 -25 -10 -25 -11 0 -14 33 -3 43 11 11 13 8 13
-18z m-260 0 c0 -8 -4 -15 -10 -15 -5 0 -10 7 -10 15 0 8 5 15 10 15 6 0 10
-7 10 -15z m181 -65 c-12 -7 -13 -11 -1 -24 15 -19 14 -21 -18 -31 -23 -7 -24
-6 -18 47 3 29 5 55 6 58 0 2 10 -6 23 -18 18 -19 20 -24 8 -32z m79 0 c0 -5
-4 -10 -10 -10 -5 0 -10 5 -10 10 0 6 5 10 10 10 6 0 10 -4 10 -10z m0 -60 c0
-5 -2 -10 -4 -10 -3 0 -8 5 -11 10 -3 6 -1 10 4 10 6 0 11 -4 11 -10z m-72
-37 c-2 -20 -8 -27 -20 -25 -10 2 -18 -2 -18 -9 0 -6 8 -9 20 -6 29 8 32 -7 7
-33 -16 -19 -18 -22 -4 -17 14 5 17 1 17 -21 0 -16 6 -34 12 -40 10 -10 10
-15 -2 -22 -11 -7 -11 -10 -2 -10 10 0 10 -5 1 -21 -6 -12 -7 -24 -2 -28 5 -3
7 -48 5 -100 -4 -81 -6 -94 -23 -98 -10 -3 -19 -10 -19 -15 0 -5 5 -6 10 -3 6
4 10 -5 10 -20 0 -15 -4 -24 -10 -20 -5 3 -10 2 -10 -3 0 -6 6 -12 14 -15 18
-7 10 -45 -15 -69 -23 -23 -29 -23 -29 2 0 12 10 24 23 30 21 8 20 11 -5 14
-10 1 -13 61 -12 265 1 243 3 266 20 278 27 20 36 16 32 -14z m-188 -10 c-1
-24 -2 -26 -11 -10 -5 9 -7 22 -4 27 10 17 15 11 15 -17z m180 -603 c0 -11 -7
-20 -15 -20 -8 0 -15 -4 -15 -10 0 -5 -4 -10 -10 -10 -5 0 -10 8 -10 18 0 14
8 21 48 41 1 0 2 -8 2 -19z m-30 -90 c0 -44 -15 -44 -16 1 -1 21 2 36 7 33 5
-3 9 -18 9 -34z m-160 -36 c0 -8 -4 -12 -10 -9 -5 3 -10 10 -10 16 0 5 5 9 10
9 6 0 10 -7 10 -16z m-3 -176 c-3 -8 -6 -5 -6 6 -1 11 2 17 5 13 3 -3 4 -12 1
-19z m-3 -94 c3 -8 2 -12 -4 -9 -6 3 -10 10 -10 16 0 14 7 11 14 -7z m-17
-286 c-3 -8 -6 -5 -6 6 -1 11 2 17 5 13 3 -3 4 -12 1 -19z m-27 -673 c0 -25
-4 -45 -10 -45 -11 0 -14 73 -3 83 11 12 13 8 13 -38z m-4 -482 c-10 -10 -19
5 -10 18 6 11 8 11 12 0 2 -7 1 -15 -2 -18z m204 -99 c0 -8 -5 -12 -10 -9 -6
4 -8 11 -5 16 9 14 15 11 15 -7z m-33 -276 c-3 -8 -6 -5 -6 6 -1 11 2 17 5 13
3 -3 4 -12 1 -19z"/>
<path d="M1570 5399 c0 -5 5 -7 10 -4 6 3 10 8 10 11 0 2 -4 4 -10 4 -5 0 -10
-5 -10 -11z"/>
<path d="M1560 5028 c0 -12 3 -18 7 -14 11 10 12 36 2 36 -5 0 -9 -10 -9 -22z"/>
<path d="M1547 4970 c-3 -11 -2 -20 3 -20 12 0 31 26 23 33 -11 12 -21 7 -26
-13z"/>
<path d="M1500 2810 c0 -5 5 -10 11 -10 5 0 7 5 4 10 -3 6 -8 10 -11 10 -2 0
-4 -4 -4 -10z"/>
<path d="M1511 2748 c0 -16 -6 -28 -12 -28 -5 0 -7 -5 -3 -11 10 -17 26 17 21
44 -4 18 -4 18 -6 -5z"/>
<path d="M1490 2650 c0 -5 5 -10 11 -10 5 0 7 5 4 10 -3 6 -8 10 -11 10 -2 0
-4 -4 -4 -10z"/>
<path d="M3196 7202 c-2 -4 4 -9 15 -9 10 -1 19 2 19 8 0 11 -27 12 -34 1z"/>
<path d="M3270 7191 c0 -14 -43 -21 -135 -22 -47 0 -83 -4 -80 -8 2 -5 16 -6
30 -3 36 6 31 -13 -7 -26 -32 -11 -31 -12 14 -7 26 2 50 1 53 -4 3 -5 14 -7
24 -4 10 3 21 1 24 -4 3 -5 -26 -15 -66 -22 -51 -10 -72 -10 -75 -2 -2 6 -16
1 -35 -13 -40 -30 -107 -58 -107 -45 0 6 -11 -3 -24 -18 -33 -39 -43 -22 -15
24 21 34 21 36 4 23 -11 -8 -32 -27 -47 -42 -32 -34 -48 -36 -41 -5 3 16 2 18
-5 8 -5 -7 -16 -11 -23 -9 -8 3 -22 -2 -32 -10 -15 -13 -20 -14 -27 -3 -5 9
-15 11 -26 6 -18 -7 -18 -8 1 -15 18 -8 18 -9 -5 -9 -17 -1 -21 -4 -12 -10 10
-6 4 -13 -22 -25 -20 -9 -36 -24 -36 -33 0 -16 -87 -103 -102 -103 -4 0 -2 15
3 32 14 50 11 48 -21 -15 -17 -32 -55 -86 -85 -120 -30 -33 -55 -66 -55 -74 0
-7 -3 -13 -8 -13 -4 0 -12 -8 -17 -19 -6 -10 -23 -43 -39 -72 -17 -30 -29 -60
-27 -68 1 -8 -2 -17 -9 -21 -7 -4 -8 -14 -1 -31 6 -14 10 -18 11 -9 1 8 8 -12
15 -45 7 -33 9 -61 5 -63 -13 -5 22 -59 50 -76 14 -8 19 -16 11 -16 -9 0 0
-13 20 -31 31 -29 32 -31 9 -24 -18 4 -21 4 -11 -4 24 -16 24 -52 1 -58 -19
-5 -19 -7 -5 -23 14 -15 14 -21 1 -58 -11 -31 -12 -42 -3 -42 8 0 7 -4 -3 -10
-8 -5 -11 -12 -7 -16 4 -4 2 -13 -4 -21 -7 -8 -8 -13 -1 -13 5 0 15 7 22 15
18 22 32 18 26 -7 -3 -13 -3 -17 0 -10 7 14 34 16 34 2 0 -5 -4 -10 -10 -10
-5 0 -10 -14 -10 -31 0 -17 -4 -28 -10 -24 -5 3 -7 12 -3 20 3 8 0 15 -6 15
-6 0 -11 -5 -11 -10 0 -6 -7 -10 -16 -8 -10 2 -19 -3 -22 -11 -3 -8 0 -11 6
-7 14 8 18 0 26 -49 5 -29 4 -36 -3 -25 -9 13 -11 12 -11 -5 0 -59 39 -95 41
-37 0 25 1 26 9 5 5 -12 7 -45 5 -73 -4 -51 -3 -52 16 -34 16 14 19 14 19 2 0
-8 -3 -18 -7 -22 -12 -11 -10 -56 1 -49 5 4 7 -1 3 -10 -7 -20 -3 -21 25 -6
16 9 19 8 12 -2 -10 -17 -10 -51 0 -68 7 -11 10 -11 17 0 6 10 9 5 9 -16 l1
-30 14 25 14 25 1 -37 c0 -20 5 -40 10 -43 6 -3 10 -17 10 -29 0 -13 7 -29 15
-36 8 -7 15 -19 15 -27 0 -10 6 -13 16 -9 8 3 12 2 9 -4 -3 -6 -2 -10 4 -10
20 0 18 17 -10 125 -20 78 -29 139 -31 208 -1 54 -6 101 -10 103 -13 8 -9 63
7 94 8 16 25 32 37 35 35 11 115 115 88 115 -5 0 -10 -7 -10 -15 0 -8 -4 -15
-8 -15 -5 0 -18 -9 -30 -20 -20 -19 -33 -14 -15 4 8 8 9 13 11 64 2 23 6 31
14 26 8 -5 9 -2 5 9 -4 10 -2 30 4 45 l11 27 9 -23 c5 -13 7 -28 3 -33 -3 -5
-1 -16 4 -25 7 -13 10 -8 15 21 8 51 45 102 87 120 39 16 112 57 120 66 5 6
34 13 108 26 18 3 35 9 38 14 3 5 -3 6 -13 3 -14 -4 -15 -4 -3 4 20 12 100 26
82 14 -11 -8 -11 -10 2 -15 10 -4 16 -1 16 7 0 17 27 29 32 14 2 -6 31 -12 63
-14 48 -2 62 -6 74 -23 7 -12 19 -21 26 -21 13 0 35 -41 35 -65 0 -9 6 -12 15
-9 16 7 21 -11 6 -20 -11 -7 -2 -46 10 -46 5 0 9 5 9 10 0 6 5 10 10 10 6 0
10 -16 10 -35 0 -27 4 -35 18 -35 11 0 27 -16 41 -40 12 -22 26 -41 32 -41 5
-1 12 -2 17 -3 4 -1 22 -6 41 -10 l34 -8 -32 -15 c-17 -9 -29 -19 -26 -23 7
-11 -82 -60 -106 -60 -11 0 -19 -4 -19 -10 0 -5 -6 -10 -14 -10 -31 0 -36 -66
-9 -109 15 -23 14 -25 -21 -57 -43 -40 -44 -58 -9 -132 15 -31 28 -64 29 -72
1 -8 9 -42 18 -75 9 -32 16 -69 16 -82 0 -12 4 -24 9 -28 6 -3 13 -25 16 -49
7 -44 48 -101 66 -91 15 10 10 -8 -11 -40 -24 -36 -25 -58 -5 -75 8 -7 12 -16
9 -21 -3 -5 3 -6 12 -2 11 4 15 3 11 -4 -4 -6 -1 -14 5 -16 8 -3 6 -6 -4 -6
-10 -1 -21 -1 -25 -2 -15 -1 -43 -32 -43 -47 0 -11 10 -13 48 -9 26 2 56 8 67
12 11 4 0 -7 -25 -24 -24 -17 -57 -33 -72 -36 -15 -4 -28 -11 -28 -16 0 -12
17 -12 40 1 13 7 19 6 23 -5 4 -8 -1 -15 -11 -18 -9 -2 7 -5 36 -8 37 -3 52 0
52 8 0 7 13 19 28 27 26 13 31 13 45 -2 16 -15 17 -14 17 11 0 31 20 36 44 11
26 -26 18 -40 -36 -67 -102 -48 -150 -63 -225 -70 -12 -1 -27 -7 -34 -14 -8
-8 -18 -9 -31 -2 -10 5 -23 7 -28 4 -16 -10 -50 14 -50 35 0 17 8 23 30 22 3
0 11 7 19 15 12 13 11 14 -5 9 -10 -3 -43 -10 -71 -16 -29 -5 -64 -16 -77 -25
-44 -29 -101 15 -78 62 36 75 97 189 103 193 5 3 9 26 11 50 3 39 0 45 -17 45
-13 0 -21 -8 -23 -22 -2 -13 -7 -23 -12 -23 -4 0 -21 -33 -36 -72 -15 -40 -39
-98 -54 -128 -48 -95 -47 -103 10 -158 27 -26 50 -51 50 -56 0 -4 7 -14 15
-22 8 -8 19 -23 25 -32 17 -30 32 6 25 65 l-5 53 27 -11 c16 -7 48 -18 72 -25
35 -11 41 -11 32 0 -9 10 -3 12 34 6 28 -4 42 -3 38 3 -5 9 12 7 72 -7 39 -9
55 -20 55 -37 0 -12 -7 -19 -20 -19 -14 0 -20 7 -20 23 0 16 -6 23 -19 23 -19
0 -19 -2 -4 -27 19 -32 78 -45 133 -29 44 13 60 13 60 0 0 -5 -10 -10 -22 -11
-22 -1 -22 -1 2 -8 l25 -8 -25 -4 c-28 -4 -31 -18 -7 -33 12 -8 20 -6 30 8 13
18 15 17 37 -14 17 -24 20 -34 10 -40 -19 -12 9 -70 35 -71 17 -1 16 -2 -5 -9
-21 -7 -22 -8 -5 -9 11 -1 31 -14 45 -31 14 -16 31 -30 39 -30 8 0 11 -3 8 -6
-9 -9 11 -44 26 -44 7 0 41 14 77 32 36 18 68 33 73 34 4 1 8 2 10 4 1 1 12 3
25 4 24 3 43 -19 35 -41 -2 -6 1 -14 6 -18 6 -3 11 -21 11 -39 0 -17 4 -36 9
-42 5 -5 11 -18 13 -29 4 -24 97 -117 109 -109 13 8 49 -15 49 -31 0 -8 11
-35 25 -61 23 -42 24 -49 10 -64 -19 -21 -19 -30 -1 -30 18 0 30 -30 17 -43
-6 -6 -1 -18 14 -33 13 -12 25 -29 28 -36 2 -7 7 -10 11 -7 4 4 -2 22 -13 40
-20 32 -16 63 12 80 5 4 7 13 5 20 -4 9 -10 5 -18 -13 -15 -32 -30 -37 -30
-10 0 17 53 55 80 56 8 1 15 8 16 16 2 34 5 40 15 40 14 0 3 -48 -15 -70 -24
-28 -26 -49 -5 -55 11 -4 19 -15 19 -28 0 -45 14 -52 63 -31 l45 18 -36 33
c-48 42 -59 41 -33 -2 11 -19 17 -36 13 -39 -11 -7 -36 17 -50 47 -10 23 -9
33 8 65 11 20 20 45 20 55 0 13 5 17 15 13 10 -3 15 1 15 12 1 16 1 16 14 0 7
-10 20 -18 29 -18 8 0 22 -13 31 -30 12 -26 12 -30 0 -30 -8 0 -14 6 -14 14 0
7 -7 19 -16 27 -13 10 -17 10 -25 -2 -11 -18 -12 -32 0 -25 5 3 20 -12 35 -34
14 -22 22 -40 17 -40 -16 0 -71 70 -71 90 0 11 -4 20 -9 20 -5 0 -7 -10 -4
-21 4 -15 0 -27 -13 -37 -18 -14 -18 -14 3 -8 16 5 23 2 27 -12 8 -24 40 -62
53 -62 5 0 32 11 59 25 27 14 56 25 64 25 8 0 33 16 55 35 28 25 35 35 22 35
-9 0 -17 5 -17 11 0 7 9 9 24 5 15 -4 26 -1 29 8 4 9 -2 12 -20 8 -17 -3 -24
-1 -20 6 4 5 -1 13 -11 17 -15 7 -14 9 8 15 16 5 19 8 8 9 -12 1 -17 8 -15 24
2 19 -3 22 -33 23 -80 2 -83 3 -70 19 16 20 -5 48 -30 40 -13 -4 -19 4 -28 32
-29 99 -24 109 42 91 44 -12 49 -11 61 6 14 19 52 15 40 -3 -6 -11 49 -8 78 4
9 4 24 4 33 1 8 -3 12 -2 9 4 -3 6 3 10 15 10 13 0 19 4 14 11 -4 7 -1 10 7 7
8 -3 22 -19 32 -36 18 -31 18 -32 0 -26 -14 5 -15 4 -7 -5 17 -19 49 -9 52 16
2 14 -6 30 -22 44 -19 17 -23 26 -15 35 7 8 8 34 4 69 -7 52 -6 57 14 62 30 8
26 38 -9 70 -35 31 -39 69 -13 114 15 25 15 33 4 64 -14 41 -13 45 54 110 54
52 75 87 75 123 0 16 7 36 16 43 14 11 18 10 30 -6 16 -21 19 -55 5 -55 -5 0
-12 -13 -16 -30 -8 -37 -21 -46 -42 -29 -14 12 -15 10 -9 -19 6 -26 4 -33 -11
-38 -33 -10 -48 -21 -48 -35 0 -19 84 -13 107 8 27 24 58 99 60 147 2 55 -19
89 -71 115 -21 11 -41 27 -45 36 -3 9 -10 13 -16 10 -6 -3 -13 2 -17 11 -4 10
-2 19 5 22 20 6 14 23 -34 95 -44 65 -46 71 -42 125 4 46 1 64 -21 105 -28 55
-63 82 -129 99 l-43 11 3 45 3 46 47 1 c27 0 54 7 65 16 10 9 27 20 38 25 15
6 9 9 -30 11 -92 6 -95 8 -95 61 0 26 -4 74 -9 107 -6 33 -12 75 -15 92 -7 51
-42 100 -81 113 -19 6 -35 15 -35 19 0 11 51 61 61 61 14 0 10 27 -6 40 -13
11 -15 9 -13 -11 2 -18 -2 -24 -17 -24 -11 0 -26 -4 -32 -8 -22 -14 -61 35
-59 74 1 27 -5 39 -31 63 -21 17 -32 35 -29 45 16 54 18 74 7 67 -6 -4 -11 -3
-11 3 0 5 5 11 10 13 6 2 13 19 16 39 5 26 1 40 -12 53 -17 18 -18 17 -25 -2
-4 -11 -13 -23 -19 -27 -8 -5 -6 -11 6 -20 16 -11 17 -17 5 -53 -22 -67 -25
-68 -66 -46 -53 28 -84 74 -49 74 8 0 12 5 9 10 -6 10 6 14 39 10 11 -1 15 3
12 9 -4 6 -14 11 -22 11 -8 0 -14 5 -14 10 0 6 9 10 20 10 11 0 20 5 20 11 0
5 4 8 9 5 5 -3 14 1 21 9 11 13 8 15 -19 15 -22 0 -31 -5 -31 -16 0 -12 -5
-14 -17 -9 -10 4 -29 10 -43 13 -14 2 -31 9 -38 15 -20 15 -52 87 -52 115 0
15 -17 41 -45 70 -25 25 -45 48 -45 51 0 13 73 52 87 47 8 -3 23 -1 34 4 21
12 24 3 20 -55 -2 -20 1 -27 8 -20 18 18 16 121 -3 149 -21 34 -28 33 -15 -1
14 -38 4 -57 -26 -49 -14 4 -25 2 -25 -4 0 -13 -109 -13 -148 1 -27 9 -30 14
-22 29 6 10 35 34 65 52 84 51 71 57 -50 26 -45 -11 -51 -11 -47 4 2 7 -9 8
-27 5 -28 -6 -32 -3 -49 36 -10 23 -26 48 -35 56 -10 7 -17 20 -17 27 0 10 -6
11 -25 4 -23 -9 -24 -8 -16 8 8 15 4 17 -32 16 -23 -1 -50 -5 -59 -9 -11 -4
-23 -1 -32 7 -18 19 -86 12 -86 -9 0 -13 2 -13 17 -2 11 10 14 10 9 2 -10 -18
4 -39 15 -22 5 8 9 9 9 3 0 -6 -10 -19 -21 -30 -22 -19 -22 -19 -14 5 5 16 4
21 -4 17 -7 -5 -14 4 -17 23 -8 36 -22 38 -123 17 -64 -14 -66 -14 -125 14
-34 16 -79 32 -101 36 -22 3 -48 11 -57 16 -11 5 -18 5 -18 -1z m7 -27 c-3 -3
-12 -4 -19 -1 -8 3 -5 6 6 6 11 1 17 -2 13 -5z m-130 -10 c-3 -3 -12 -4 -19
-1 -8 3 -5 6 6 6 11 1 17 -2 13 -5z m47 -9 c-4 -8 -16 -15 -28 -15 -20 0 -20
1 4 14 14 8 26 14 27 15 1 1 0 -6 -3 -14z m171 5 c-3 -5 -12 -10 -18 -10 -7 0
-6 4 3 10 19 12 23 12 15 0z m-135 -10 c0 -5 -4 -10 -10 -10 -5 0 -10 5 -10
10 0 6 5 10 10 10 6 0 10 -4 10 -10z m215 -15 c16 -13 26 -27 22 -31 -9 -9
-80 29 -85 45 -7 20 32 11 63 -14z m232 -1 c-3 -3 -12 -4 -19 -1 -8 3 -5 6 6
6 11 1 17 -2 13 -5z m-394 -21 c-7 -2 -21 -2 -30 0 -10 3 -4 5 12 5 17 0 24
-2 18 -5z m72 -3 c-3 -5 -11 -10 -16 -10 -6 0 -7 5 -4 10 3 6 11 10 16 10 6 0
7 -4 4 -10z m-180 -20 c3 -5 -1 -10 -10 -10 -9 0 -13 -4 -10 -10 3 -5 1 -10
-4 -10 -6 0 -11 5 -11 10 0 6 -8 10 -17 11 -15 0 -15 2 2 9 27 12 43 12 50 0z
m723 -28 c3 -11 0 -12 -14 -4 -11 5 -25 7 -31 5 -7 -3 -13 1 -13 7 0 16 52 8
58 -8z m-598 -2 c11 -7 4 -10 -25 -10 -29 0 -36 3 -25 10 8 5 20 10 25 10 6 0
17 -5 25 -10z m628 -66 c17 -35 15 -44 -8 -44 -18 0 -90 55 -90 69 0 3 10 11
23 17 27 12 59 -5 75 -42z m-978 -18 c0 -2 -7 -7 -16 -10 -8 -3 -12 -2 -9 4 6
10 25 14 25 6z m-42 -30 c-2 -1 -12 -8 -22 -16 -18 -14 -18 -14 -6 7 8 12 18
19 23 16 4 -3 7 -6 5 -7z m-93 -2 c12 -5 7 -14 -27 -43 -23 -20 -44 -36 -48
-37 -21 -3 -59 -26 -80 -49 -14 -15 -45 -37 -70 -50 -88 -45 -134 -108 -152
-207 -7 -35 -14 -54 -16 -43 -2 11 -9 26 -15 33 -7 9 -7 19 0 35 6 12 17 38
24 57 14 37 157 185 189 195 10 3 22 15 25 26 8 23 21 25 29 3 5 -14 7 -14 22
0 8 9 22 16 30 16 8 0 14 4 14 9 0 9 46 61 54 61 2 0 12 -3 21 -6z m129 -38
c-20 -16 -31 -21 -36 -13 -7 12 11 29 23 21 4 -2 12 3 19 11 7 9 15 13 18 11
2 -3 -9 -16 -24 -30z m-66 -8 c-4 -17 -30 -44 -50 -51 -26 -9 -22 -1 13 33 35
33 40 36 37 18z m73 -30 c-14 -22 -21 -27 -21 -15 0 16 31 57 39 51 2 -2 -6
-18 -18 -36z m1159 -8 c8 -5 11 -10 5 -10 -5 0 -17 5 -25 10 -8 5 -10 10 -5
10 6 0 17 -5 25 -10z m-1300 -70 c0 -5 -4 -10 -10 -10 -5 0 -10 -5 -10 -10 0
-6 -10 -21 -21 -33 l-21 -22 6 25 7 25 -20 -25 c-26 -32 -28 -17 -2 16 13 16
21 20 23 12 3 -9 10 -5 19 10 14 23 29 29 29 12z m-108 -62 c-7 -7 -12 -8 -12
-2 0 14 12 26 19 19 2 -3 -1 -11 -7 -17z m126 -28 c-7 -10 -14 -17 -17 -15 -4
4 18 35 25 35 2 0 -1 -9 -8 -20z m-188 -25 c0 -8 -4 -15 -10 -15 -5 0 -7 7 -4
15 4 8 8 15 10 15 2 0 4 -7 4 -15z m275 -3 c-13 -11 -65 -33 -65 -27 0 2 12
11 28 19 30 17 52 21 37 8z m-394 -115 c-8 -8 -11 -5 -11 9 0 27 14 41 18 19
2 -9 -1 -22 -7 -28z m-181 -87 c0 -5 -2 -10 -4 -10 -3 0 -8 5 -11 10 -3 6 -1
10 4 10 6 0 11 -4 11 -10z m303 -408 c-3 -12 -12 -22 -19 -22 -8 0 -14 -3 -14
-7 -5 -72 -13 -119 -22 -136 -11 -19 -13 -20 -16 -4 -2 9 -8 14 -14 11 -7 -5
-9 0 -6 14 4 13 1 22 -5 22 -16 0 -19 62 -4 73 8 6 6 7 -6 3 -10 -3 -23 -6
-28 -6 -5 0 -9 -8 -10 -17 0 -12 -2 -13 -6 -5 -7 19 16 42 43 42 14 0 25 8 29
20 4 11 15 20 26 20 13 0 18 -4 13 -12 -4 -7 4 -3 17 9 27 26 30 25 22 -5z
m2067 18 c13 -8 13 -10 -2 -10 -9 0 -20 5 -23 10 -8 13 5 13 25 0z m-2263 -26
c-3 -3 -12 -4 -19 -1 -8 3 -5 6 6 6 11 1 17 -2 13 -5z m13 -24 c-8 -5 -17 -7
-19 -4 -3 3 1 9 9 14 8 5 17 7 19 4 3 -3 -1 -9 -9 -14z m20 -20 c0 -5 -2 -10
-4 -10 -3 0 -8 5 -11 10 -3 6 -1 10 4 10 6 0 11 -4 11 -10z m37 -52 c-3 -7 -5
-2 -5 12 0 14 2 19 5 13 2 -7 2 -19 0 -25z m-20 -30 c-3 -7 -5 -2 -5 12 0 14
2 19 5 13 2 -7 2 -19 0 -25z m1121 -320 c14 -17 13 -18 -11 -18 -28 0 -33 13
-20 46 5 14 8 15 11 3 3 -7 11 -22 20 -31z m-1165 -22 c6 -15 -1 -26 -15 -26
-4 0 -8 9 -8 20 0 23 15 27 23 6z m2397 -66 c0 -5 -2 -10 -4 -10 -3 0 -8 5
-11 10 -3 6 -1 10 4 10 6 0 11 -4 11 -10z m45 -20 c3 -5 1 -10 -4 -10 -6 0
-11 5 -11 10 0 6 2 10 4 10 3 0 8 -4 11 -10z m-1109 -24 l-29 -13 27 -7 c14
-3 26 -11 26 -17 0 -6 5 -7 10 -4 6 4 8 11 5 16 -10 15 12 10 25 -6 7 -8 20
-15 29 -15 11 0 22 -14 30 -37 8 -21 20 -46 28 -55 12 -13 13 -33 8 -95 -4
-43 -11 -88 -16 -100 -8 -23 -9 -23 -46 -5 -21 9 -40 19 -43 22 -3 3 -21 14
-40 24 -28 16 -73 47 -120 85 -3 2 1 6 8 8 14 6 16 49 2 58 -5 3 -10 15 -10
26 0 14 -10 25 -30 32 -41 15 -38 24 8 24 76 -1 100 3 106 18 3 8 2 14 -2 13
-13 -3 -52 13 -52 22 0 9 35 16 80 18 24 0 24 0 -4 -12z m1172 -292 c-3 -13
-6 -13 -22 -1 -18 13 -18 14 0 32 17 17 19 17 22 2 2 -9 2 -24 0 -33z m39 34
c12 -15 23 -68 14 -68 -3 0 -13 10 -21 23 -25 38 -19 78 7 45z m11 -132 c4 -5
-2 -7 -13 -5 -11 2 -30 -1 -43 -5 -23 -8 -56 9 -47 24 5 8 92 -4 103 -14z m45
-100 c7 -18 -8 -72 -25 -94 -7 -8 -26 -23 -43 -33 l-29 -18 -13 31 c-11 26
-11 34 2 48 8 9 15 26 15 39 0 34 81 58 93 27z m-1283 -118 c0 -16 -3 -19 -11
-11 -6 6 -8 16 -5 22 11 17 16 13 16 -11z m1095 -138 c3 -5 2 -10 -4 -10 -5 0
-13 5 -16 10 -3 6 -2 10 4 10 5 0 13 -4 16 -10z m65 -289 c0 -33 -66 -53 -100
-31 -13 8 -12 11 5 24 22 17 95 22 95 7z m-390 -92 c0 -10 -4 -19 -10 -19 -5
0 -10 12 -10 26 0 14 4 23 10 19 6 -3 10 -15 10 -26z m105 11 c3 -6 -1 -7 -9
-4 -18 7 -21 14 -7 14 6 0 13 -4 16 -10z m-435 -171 c0 -23 -27 -4 -42 30 -26
54 -22 59 12 16 17 -21 30 -42 30 -46z m60 -73 c7 -9 9 -16 6 -16 -15 0 -44
20 -50 35 -4 12 -2 13 13 6 10 -6 23 -17 31 -25z m115 -83 c26 -21 31 -30 23
-40 -23 -29 -68 0 -68 43 0 30 3 30 45 -3z m265 -34 c0 -5 -4 -9 -10 -9 -5 0
-10 7 -10 16 0 8 5 12 10 9 6 -3 10 -10 10 -16z"/>
<path d="M2570 6026 c0 -8 -7 -22 -16 -30 -11 -12 -12 -20 -5 -33 9 -16 11
-13 17 15 3 17 10 32 15 32 5 0 9 7 9 15 0 8 -4 15 -10 15 -5 0 -10 -6 -10
-14z"/>
<path d="M2575 5920 c-3 -5 -1 -10 4 -10 6 0 11 5 11 10 0 6 -2 10 -4 10 -3 0
-8 -4 -11 -10z"/>
<path d="M3850 7146 c0 -2 9 -6 20 -9 11 -3 20 -1 20 4 0 5 -9 9 -20 9 -11 0
-20 -2 -20 -4z"/>
<path d="M2759 7043 c-13 -15 -12 -15 9 -4 23 12 28 21 13 21 -5 0 -15 -7 -22
-17z"/>
<path d="M4242 6978 c3 -7 15 -14 29 -16 23 -2 23 -2 5 13 -24 18 -39 20 -34
3z"/>
<path d="M2218 6210 c5 -35 8 -37 15 -10 3 10 -1 24 -7 29 -10 8 -11 3 -8 -19z"/>
<path d="M2642 5951 c-7 -18 -7 -31 -2 -31 11 0 25 48 17 56 -2 3 -9 -9 -15
-25z"/>
<path d="M7672 5945 c0 -16 2 -22 5 -12 2 9 2 23 0 30 -3 6 -5 -1 -5 -18z"/>
<path d="M7663 5800 c-23 -215 -40 -444 -63 -845 -6 -99 -15 -371 -21 -605
-12 -479 -15 -542 -23 -620 -3 -30 -8 -100 -11 -155 -3 -55 -11 -136 -17 -180
-9 -71 -10 -316 -5 -1680 0 -73 2 -85 11 -62 5 15 13 27 18 27 4 0 8 11 8 24
0 13 3 31 6 40 8 22 44 21 45 -1 1 -40 18 23 18 72 1 28 6 77 12 110 6 33 13
137 14 231 2 95 8 196 15 225 8 40 10 511 8 1794 -2 1430 -5 1720 -15 1625z"/>
<path d="M3040 5654 c-14 -8 -33 -14 -43 -14 -29 0 -129 -31 -154 -47 -12 -8
-27 -12 -32 -9 -5 4 -12 2 -16 -4 -3 -5 -11 -10 -16 -10 -6 0 -7 5 -4 10 3 6
1 10 -4 10 -6 0 -11 -6 -11 -14 0 -12 -16 -23 -40 -28 -8 -2 -30 -26 -30 -33
0 -3 6 -3 12 1 7 5 3 -5 -10 -20 -32 -42 -27 -49 16 -23 20 13 55 27 77 30 22
4 51 10 64 13 20 6 18 0 -23 -53 -52 -67 -68 -122 -43 -147 12 -12 17 -13 20
-3 4 8 6 7 6 -3 1 -16 19 -19 137 -20 61 -1 73 -3 77 -19 3 -14 11 -18 33 -14
16 3 36 11 44 18 8 7 24 15 35 19 21 6 55 54 55 76 0 10 -4 10 -15 0 -9 -7
-18 -10 -22 -7 -3 4 7 12 21 19 19 8 26 17 23 30 -3 10 -1 16 4 12 5 -3 9 -1
9 5 0 5 -5 13 -11 16 -5 4 -14 17 -19 29 -7 19 -14 22 -42 18 -18 -2 -30 -1
-26 3 4 4 -7 20 -24 36 -29 26 -30 29 -12 34 47 16 64 25 64 37 -1 18 -29 66
-30 50 0 -10 -5 -9 -22 1 -19 12 -27 12 -48 1z m-112 -291 c17 -37 15 -43 -11
-43 -22 0 -47 16 -47 31 0 10 29 39 38 39 4 0 13 -12 20 -27z"/>
<path d="M2390 5531 c0 -6 4 -13 10 -16 6 -3 7 1 4 9 -7 18 -14 21 -14 7z"/>
<path d="M2396 5482 c-7 -11 4 -52 13 -52 4 0 6 14 3 30 -4 31 -7 35 -16 22z"/>
<path d="M2419 5408 c-7 -18 -15 -37 -17 -42 -3 -5 0 -6 7 -2 7 5 9 -3 5 -26
-5 -26 -3 -30 6 -18 9 12 10 9 5 -13 -4 -21 -3 -27 6 -21 8 5 9 3 4 -6 -4 -6
1 -39 11 -72 13 -45 20 -56 25 -42 6 17 8 16 19 -9 14 -29 5 -51 -10 -27 -17
26 -11 1 19 -78 16 -42 33 -95 39 -117 6 -22 22 -71 36 -110 14 -38 26 -80 26
-92 0 -12 5 -25 10 -28 6 -3 10 3 10 15 0 33 47 117 69 123 18 4 19 9 10 35
-6 17 -17 36 -25 43 -8 6 -14 18 -14 25 0 8 -4 14 -9 14 -5 0 -22 33 -37 73
-15 39 -34 80 -42 90 -9 9 -20 26 -26 36 -6 11 -24 41 -39 68 -29 48 -29 54
-11 135 5 23 2 29 -20 38 -14 5 -26 16 -26 25 0 26 -18 16 -31 -17z"/>
<path d="M6986 5187 c-4 -98 -6 -180 -3 -183 8 -8 19 192 15 281 -2 60 -5 36
-12 -98z"/>
<path d="M2527 5230 c3 -11 9 -22 13 -25 5 -3 6 4 3 15 -3 11 -9 22 -13 25 -5
3 -6 -4 -3 -15z"/>
<path d="M2611 5143 c7 -12 15 -20 18 -17 3 2 -3 12 -13 22 -17 16 -18 16 -5
-5z"/>
<path d="M2670 5016 c0 -2 8 -10 18 -17 15 -13 16 -12 3 4 -13 16 -21 21 -21
13z"/>
<path d="M3357 4983 c-15 -15 -5 -23 29 -23 31 0 35 2 24 15 -13 16 -42 20
-53 8z"/>
<path d="M2681 4804 c-23 -29 -23 -31 -26 -91 -1 -24 2 -43 6 -43 5 0 6 -8 2
-17 -5 -14 -1 -13 19 5 13 12 28 19 31 15 4 -3 7 0 7 7 0 7 3 11 6 8 3 -3 -4
-24 -15 -46 l-20 -40 20 -18 c27 -24 127 -27 156 -4 10 8 8 5 -5 -7 -13 -13
-34 -23 -48 -24 -85 -2 -105 -1 -119 11 -13 11 -14 10 -8 -6 4 -10 13 -24 20
-29 12 -9 12 -15 -1 -40 -9 -16 -11 -32 -6 -35 5 -3 5 -22 -1 -48 -5 -23 -8
-45 -7 -49 3 -12 -13 -77 -22 -88 -8 -11 -24 -69 -25 -95 -1 -8 4 -21 9 -29 8
-11 8 -13 -1 -7 -12 7 -18 -5 -14 -27 1 -4 -5 -20 -14 -36 -8 -16 -11 -31 -8
-35 4 -3 0 -6 -8 -6 -15 0 -54 -45 -54 -62 0 -5 -26 -37 -57 -71 -63 -68 -73
-93 -33 -83 16 4 36 -1 57 -14 45 -27 55 -25 21 4 l-28 25 37 15 c20 9 73 52
118 97 70 72 83 80 95 68 32 -32 -69 -185 -158 -239 -18 -11 -25 -20 -17 -20
8 0 22 4 30 10 9 5 19 5 27 -1 20 -17 76 17 148 92 37 38 71 66 76 63 5 -3 9
11 9 30 0 20 5 36 10 36 6 0 10 -4 10 -9 0 -5 23 -12 51 -16 54 -8 70 -25 48
-51 -15 -18 -20 -54 -7 -54 5 0 6 -10 3 -21 -5 -16 -4 -19 5 -14 7 4 15 3 19
-2 11 -16 77 -63 89 -63 7 0 12 7 12 16 0 9 -5 12 -12 8 -6 -4 -8 -3 -5 3 4 6
19 14 33 17 26 7 54 28 54 41 0 4 -7 5 -15 1 -13 -4 -13 -2 -5 14 5 10 10 46
10 80 0 45 6 73 24 106 24 44 24 47 9 97 -8 29 -20 55 -27 59 -8 5 -8 10 1 19
6 6 9 19 5 28 -8 22 -50 61 -67 61 -26 0 -26 20 -1 32 14 6 26 14 26 17 -2 19
-66 91 -140 157 -80 72 -180 194 -180 221 0 7 -17 21 -38 32 -21 11 -44 31
-52 45 -17 33 -33 33 -59 0z m56 -71 c-3 -10 -5 -4 -5 12 0 17 2 24 5 18 2 -7
2 -21 0 -30z m-15 -125 c-7 -7 -12 -8 -12 -2 0 6 3 14 7 17 3 4 9 5 12 2 2 -3
-1 -11 -7 -17z m-31 -411 c-22 -50 -32 -61 -24 -24 4 18 3 19 -6 7 -6 -8 -11
-10 -11 -4 0 6 6 17 14 23 8 6 20 26 27 44 9 20 15 26 17 16 1 -8 -6 -37 -17
-62z m312 -96 c20 -16 23 -65 5 -59 -19 6 -47 68 -47 103 l0 30 13 -30 c7 -17
20 -36 29 -44z m-403 -106 c-7 -8 -17 -15 -22 -15 -6 0 -5 7 2 15 7 8 17 15
22 15 6 0 5 -7 -2 -15z m32 -56 c-24 -23 -46 -38 -50 -34 -9 8 63 75 80 75 7
0 -6 -19 -30 -41z m198 -9 c0 -5 -5 -10 -11 -10 -5 0 -7 5 -4 10 3 6 8 10 11
10 2 0 4 -4 4 -10z m337 -22 c-3 -8 -6 -5 -6 6 -1 11 2 17 5 13 3 -3 4 -12 1
-19z m-357 -7 c0 -5 -9 -19 -20 -32 l-21 -24 16 33 c15 31 25 41 25 23z"/>
<path d="M2659 4495 c-15 -32 -15 -34 1 -25 21 11 34 40 23 51 -4 4 -15 -8
-24 -26z"/>
<path d="M2632 4410 c-8 -13 -8 -20 -2 -20 6 0 13 7 17 15 9 24 -1 27 -15 5z"/>
<path d="M3753 4345 c-9 -25 2 -27 22 -5 17 18 17 20 1 20 -9 0 -19 -7 -23
-15z"/>
<path d="M2596 4304 c-9 -24 -7 -28 9 -14 17 14 20 30 6 30 -5 0 -12 -7 -15
-16z"/>
<path d="M3720 4310 c0 -5 5 -10 10 -10 6 0 10 5 10 10 0 6 -4 10 -10 10 -5 0
-10 -4 -10 -10z"/>
<path d="M4110 4186 c0 -2 7 -9 15 -16 13 -11 14 -10 9 4 -5 14 -24 23 -24 12z"/>
<path d="M6943 3995 c0 -38 2 -53 4 -32 2 20 2 52 0 70 -2 17 -4 1 -4 -38z"/>
<path d="M4869 3952 c-14 -9 -34 -28 -44 -42 -11 -16 -25 -26 -35 -23 -8 2
-28 -7 -44 -22 -22 -20 -31 -23 -42 -14 -8 6 -14 7 -14 2 0 -5 -12 -15 -27
-22 -26 -11 -27 -10 -8 4 19 15 19 15 -5 11 -14 -2 -29 -5 -33 -5 -5 -1 -6 -5
-3 -10 3 -5 -1 -11 -9 -15 -8 -3 -15 -12 -15 -21 0 -18 -26 -20 -33 -2 -6 17
-17 4 -22 -26 -6 -30 23 -47 41 -23 6 9 14 13 17 10 3 -3 20 1 38 10 18 9 40
16 49 16 10 0 23 7 30 15 7 9 21 13 31 10 12 -4 21 -1 25 9 4 10 18 16 40 16
24 0 34 5 34 16 0 8 5 12 10 9 6 -3 14 4 19 17 9 20 10 20 10 4 1 -13 4 -16
10 -10 11 11 21 93 12 98 -3 1 -18 -4 -32 -12z"/>
<path d="M2900 3920 c0 -5 5 -10 11 -10 5 0 7 5 4 10 -3 6 -8 10 -11 10 -2 0
-4 -4 -4 -10z"/>
<path d="M2910 3839 c0 -6 -7 -9 -15 -5 -10 4 -15 -1 -15 -15 0 -12 -8 -34
-17 -50 -20 -33 -11 -49 17 -31 23 14 30 15 29 5 -1 -5 2 -18 6 -30 6 -19 15
-23 46 -23 22 0 39 -4 39 -10 0 -5 4 -10 10 -10 20 0 2 45 -24 60 -15 8 -33
26 -40 40 -7 14 -18 24 -26 22 -8 -2 -10 3 -6 13 3 8 9 22 12 30 3 8 1 15 -5
15 -6 0 -11 -5 -11 -11z"/>
<path d="M4434 3820 c8 -41 11 -44 33 -35 17 8 17 8 1 12 -10 3 -18 13 -18 23
0 10 -5 22 -12 26 -8 5 -9 -2 -4 -26z"/>
<path d="M4350 3760 c0 -5 5 -10 10 -10 6 0 10 5 10 10 0 6 -4 10 -10 10 -5 0
-10 -4 -10 -10z"/>
<path d="M4477 3764 c-7 -7 8 -59 16 -56 4 1 7 5 6 8 0 4 4 10 10 13 7 5 4 13
-8 23 -11 9 -21 14 -24 12z"/>
<path d="M4700 3745 c0 -8 7 -15 15 -15 9 0 12 6 9 15 -4 8 -10 15 -15 15 -5
0 -9 -7 -9 -15z"/>
<path d="M4640 3725 c0 -8 5 -15 10 -15 6 0 10 7 10 15 0 8 -4 15 -10 15 -5 0
-10 -7 -10 -15z"/>
<path d="M4811 3724 c0 -11 3 -14 6 -6 3 7 2 16 -1 19 -3 4 -6 -2 -5 -13z"/>
<path d="M4443 3713 c-7 -3 -13 -11 -13 -20 0 -12 2 -12 16 2 18 17 16 25 -3
18z"/>
<path d="M4710 3704 c0 -8 5 -12 10 -9 6 4 8 11 5 16 -9 14 -15 11 -15 -7z"/>
<path d="M5975 3520 c3 -5 8 -10 11 -10 2 0 4 5 4 10 0 6 -5 10 -11 10 -5 0
-7 -4 -4 -10z"/>
<path d="M5912 3443 c18 -34 35 -60 37 -58 6 6 -39 93 -55 106 -9 7 -1 -15 18
-48z"/>
<path d="M5967 3450 c20 -44 23 -47 23 -28 0 9 -9 26 -20 39 l-20 24 17 -35z"/>
<path d="M6005 3465 c4 -11 15 -39 23 -63 8 -23 16 -41 19 -39 6 6 -27 100
-39 112 -8 7 -9 4 -3 -10z"/>
<path d="M1310 3403 c0 -43 5 -41 13 5 4 18 2 32 -3 32 -6 0 -10 -16 -10 -37z"/>
<path d="M5991 3395 c1 -19 18 -51 18 -35 0 8 -4 22 -9 30 -5 8 -9 11 -9 5z"/>
<path d="M6011 3324 c0 -11 3 -14 6 -6 3 7 2 16 -1 19 -3 4 -6 -2 -5 -13z"/>
<path d="M6051 3324 c0 -11 3 -14 6 -6 3 7 2 16 -1 19 -3 4 -6 -2 -5 -13z"/>
<path d="M6027 3270 c9 -53 24 -83 17 -35 -4 22 -10 47 -15 55 -5 9 -6 1 -2
-20z"/>
<path d="M6071 3254 c0 -11 3 -14 6 -6 3 7 2 16 -1 19 -3 4 -6 -2 -5 -13z"/>
<path d="M6081 3214 c0 -11 3 -14 6 -6 3 7 2 16 -1 19 -3 4 -6 -2 -5 -13z"/>
<path d="M1203 3160 c0 -25 2 -35 4 -22 2 12 2 32 0 45 -2 12 -4 2 -4 -23z"/>
<path d="M5883 3155 c0 -27 2 -38 4 -22 2 15 2 37 0 50 -2 12 -4 0 -4 -28z"/>
<path d="M6051 3154 c0 -11 3 -14 6 -6 3 7 2 16 -1 19 -3 4 -6 -2 -5 -13z"/>
<path d="M6012 3125 c0 -16 2 -22 5 -12 2 9 2 23 0 30 -3 6 -5 -1 -5 -18z"/>
<path d="M6102 3120 c0 -14 2 -19 5 -12 2 6 2 18 0 25 -3 6 -5 1 -5 -13z"/>
<path d="M6061 3104 c0 -11 3 -14 6 -6 3 7 2 16 -1 19 -3 4 -6 -2 -5 -13z"/>
<path d="M6022 3060 c0 -14 2 -19 5 -12 2 6 2 18 0 25 -3 6 -5 1 -5 -13z"/>
<path d="M6112 3060 c0 -14 2 -19 5 -12 2 6 2 18 0 25 -3 6 -5 1 -5 -13z"/>
<path d="M6072 3035 c0 -16 2 -22 5 -12 2 9 2 23 0 30 -3 6 -5 -1 -5 -18z"/>
<path d="M1197 3026 c-4 -10 -1 -13 9 -9 15 6 19 23 5 23 -5 0 -11 -7 -14 -14z"/>
<path d="M5502 3020 c0 -14 2 -19 5 -12 2 6 2 18 0 25 -3 6 -5 1 -5 -13z"/>
<path d="M6033 2980 c0 -25 2 -35 4 -22 2 12 2 32 0 45 -2 12 -4 2 -4 -23z"/>
<path d="M6122 2985 c0 -16 2 -22 5 -12 2 9 2 23 0 30 -3 6 -5 -1 -5 -18z"/>
<path d="M1198 2983 c-5 -25 3 -103 11 -103 3 0 7 27 8 60 1 33 -2 60 -7 60
-5 0 -10 -7 -12 -17z"/>
<path d="M5981 2984 c0 -11 3 -14 6 -6 3 7 2 16 -1 19 -3 4 -6 -2 -5 -13z"/>
<path d="M6082 2975 c0 -16 2 -22 5 -12 2 9 2 23 0 30 -3 6 -5 -1 -5 -18z"/>
<path d="M5487 2895 c-4 -22 -6 -56 -6 -75 1 -22 5 -11 10 30 10 72 6 108 -4
45z"/>
<path d="M5778 2899 c-3 -18 -2 -46 2 -63 6 -24 8 -17 8 32 0 68 -3 79 -10 31z"/>
<path d="M6132 2910 c0 -14 2 -19 5 -12 2 6 2 18 0 25 -3 6 -5 1 -5 -13z"/>
<path d="M6042 2900 c0 -14 2 -19 5 -12 2 6 2 18 0 25 -3 6 -5 1 -5 -13z"/>
<path d="M6091 2904 c0 -11 3 -14 6 -6 3 7 2 16 -1 19 -3 4 -6 -2 -5 -13z"/>
<path d="M5570 2879 c0 -8 7 -24 15 -35 19 -25 19 -14 0 22 -8 16 -15 22 -15
13z"/>
<path d="M5993 2840 c0 -25 2 -35 4 -22 2 12 2 32 0 45 -2 12 -4 2 -4 -23z"/>
<path d="M5306 2854 c-5 -14 -4 -15 9 -4 17 14 19 20 6 20 -5 0 -12 -7 -15
-16z"/>
<path d="M1197 2824 c-6 -33 5 -51 21 -32 7 9 7 20 -2 37 l-13 24 -6 -29z"/>
<path d="M5373 2795 c-9 -47 -9 -62 1 -70 7 -5 18 -19 25 -30 l13 -20 -8 20
c-4 11 -10 52 -13 90 l-6 70 -12 -60z"/>
<path d="M6103 2780 c0 -30 2 -43 4 -27 2 15 2 39 0 55 -2 15 -4 2 -4 -28z"/>
<path d="M6143 2790 c0 -25 2 -35 4 -22 2 12 2 32 0 45 -2 12 -4 2 -4 -23z"/>
<path d="M5432 2790 c0 -14 2 -19 5 -12 2 6 2 18 0 25 -3 6 -5 1 -5 -13z"/>
<path d="M5557 2765 c8 -54 22 -80 22 -40 0 17 -6 41 -14 55 -14 24 -14 24 -8
-15z"/>
<path d="M5725 2764 c-3 -20 -4 -39 0 -42 9 -9 25 19 25 45 0 37 -17 35 -25
-3z"/>
<path d="M5471 2764 c0 -11 3 -14 6 -6 3 7 2 16 -1 19 -3 4 -6 -2 -5 -13z"/>
<path d="M1198 2758 c0 -7 -2 -40 -3 -73 -1 -33 -5 -81 -9 -107 -5 -34 -4 -48
5 -48 7 0 9 -8 4 -22 -3 -13 -7 -38 -9 -56 -1 -17 -7 -37 -13 -43 -9 -9 -9
-16 0 -30 9 -15 9 -24 -1 -39 -7 -12 -8 -20 -2 -20 6 0 10 -36 10 -90 0 -83
-1 -90 -20 -90 -11 0 -20 -4 -20 -10 0 -5 7 -10 15 -10 7 0 18 -8 24 -17 17
-31 25 -4 24 80 -1 65 3 84 16 94 15 11 15 12 -1 13 -16 0 -17 9 -13 73 3 39
6 143 8 229 1 87 5 158 10 158 4 0 7 5 7 10 0 15 -30 12 -32 -2z"/>
<path d="M5428 2724 c-14 -13 -8 -58 10 -85 9 -14 35 -50 56 -78 33 -45 41
-50 49 -36 12 23 26 125 16 130 -11 7 -17 -19 -12 -49 5 -23 2 -27 -12 -24
-10 1 -21 10 -25 18 -4 8 -13 26 -20 40 -8 14 -17 41 -21 60 l-7 35 -1 -37
c-1 -48 -19 -50 -23 -2 -2 20 -6 32 -10 28z"/>
<path d="M5720 2699 c0 -5 5 -7 10 -4 6 3 10 8 10 11 0 2 -4 4 -10 4 -5 0 -10
-5 -10 -11z"/>
<path d="M6153 2635 c0 -27 2 -38 4 -22 2 15 2 37 0 50 -2 12 -4 0 -4 -28z"/>
<path d="M5683 2595 c0 -33 2 -45 4 -27 2 18 2 45 0 60 -2 15 -4 0 -4 -33z"/>
<path d="M6113 2605 c0 -27 2 -38 4 -22 2 15 2 37 0 50 -2 12 -4 0 -4 -28z"/>
<path d="M6061 2624 c0 -11 3 -14 6 -6 3 7 2 16 -1 19 -3 4 -6 -2 -5 -13z"/>
<path d="M5882 2590 c0 -14 2 -19 5 -12 2 6 2 18 0 25 -3 6 -5 1 -5 -13z"/>
<path d="M6112 2510 c0 -19 2 -27 5 -17 2 9 2 25 0 35 -3 9 -5 1 -5 -18z"/>
<path d="M5686 2495 c8 -37 14 -45 14 -19 0 10 -5 26 -10 34 -8 11 -9 7 -4
-15z"/>
<path d="M5636 2398 c-5 -42 -6 -82 -3 -90 6 -18 20 112 15 143 -2 13 -8 -11
-12 -53z"/>
<path d="M2373 2419 c-11 -29 -10 -35 12 -61 14 -16 25 -37 25 -45 0 -9 3 -14
6 -10 7 7 -18 147 -26 147 -3 0 -11 -14 -17 -31z"/>
<path d="M5451 2366 c-12 -14 -11 -24 2 -69 14 -48 26 -127 43 -296 3 -36 7
-124 7 -195 1 -72 3 -119 5 -103 2 15 7 25 12 22 4 -3 8 5 9 18 5 155 29 324
53 369 5 10 11 57 13 105 4 70 2 83 -6 63 -6 -14 -15 -60 -19 -102 -5 -42 -14
-87 -21 -100 -7 -13 -14 -39 -16 -58 -6 -49 -21 -60 -27 -19 -19 126 -26 287
-13 331 6 22 4 26 -7 22 -8 -3 -16 2 -18 12 -3 16 -4 16 -17 0z"/>
<path d="M6114 2260 c0 -58 1 -81 3 -52 2 28 2 76 0 105 -2 28 -3 5 -3 -53z"/>
<path d="M6063 2285 c0 -22 2 -30 4 -17 2 12 2 30 0 40 -3 9 -5 -1 -4 -23z"/>
<path d="M6164 2205 c0 -66 1 -92 3 -57 2 34 2 88 0 120 -2 31 -3 3 -3 -63z"/>
<path d="M6203 2280 c0 -25 2 -35 4 -22 2 12 2 32 0 45 -2 12 -4 2 -4 -23z"/>
<path d="M2417 2170 c4 -41 6 -81 6 -87 0 -7 4 -13 9 -13 12 0 9 46 -7 115
l-14 60 6 -75z"/>
<path d="M1222 2110 c0 -14 2 -19 5 -12 2 6 2 18 0 25 -3 6 -5 1 -5 -13z"/>
<path d="M1151 2065 c-1 -11 -4 -31 -6 -45 l-6 -25 11 25 c6 13 9 33 7 45 -4
19 -4 19 -6 0z"/>
<path d="M1177 2043 c-6 -34 -3 -53 7 -42 9 10 16 79 8 79 -5 0 -12 -17 -15
-37z"/>
<path d="M2412 2000 c0 -14 2 -19 5 -12 2 6 2 18 0 25 -3 6 -5 1 -5 -13z"/>
<path d="M1174 1976 c-8 -21 3 -49 16 -41 5 3 10 15 10 25 0 25 -18 36 -26 16z"/>
<path d="M6212 1950 c0 -19 2 -27 5 -17 2 9 2 25 0 35 -3 9 -5 1 -5 -18z"/>
<path d="M2405 1930 c-3 -6 -3 -20 0 -31 4 -12 3 -19 -2 -16 -5 3 -18 -17 -28
-45 -18 -51 -17 -114 4 -243 l8 -50 2 65 c0 36 8 109 16 162 13 86 17 168 9
168 -2 0 -6 -5 -9 -10z"/>
<path d="M6123 1830 c0 -36 2 -50 4 -32 2 17 2 47 0 65 -2 17 -4 3 -4 -33z"/>
<path d="M1170 1860 c0 -11 5 -20 10 -20 6 0 10 9 10 20 0 11 -4 20 -10 20 -5
0 -10 -9 -10 -20z"/>
<path d="M6172 1850 c0 -19 2 -27 5 -17 2 9 2 25 0 35 -3 9 -5 1 -5 -18z"/>
<path d="M6262 1850 c0 -14 2 -19 5 -12 2 6 2 18 0 25 -3 6 -5 1 -5 -13z"/>
<path d="M0 1335 c0 -279 2 -506 4 -504 4 5 15 433 19 761 1 171 -1 230 -10
239 -11 10 -13 -89 -13 -496z"/>
<path d="M6575 1794 c-29 -69 -45 -125 -45 -153 0 -34 -35 -177 -47 -194 -10
-13 -10 -40 1 -74 11 -36 26 -27 26 15 0 20 5 53 11 72 49 164 91 370 76 370
-4 0 -14 -16 -22 -36z"/>
<path d="M6181 1764 c0 -11 3 -14 6 -6 3 7 2 16 -1 19 -3 4 -6 -2 -5 -13z"/>
<path d="M6242 1705 c0 -16 2 -22 5 -12 2 9 2 23 0 30 -3 6 -5 -1 -5 -18z"/>
<path d="M1160 1695 c0 -8 4 -15 10 -15 5 0 7 7 4 15 -4 8 -8 15 -10 15 -2 0
-4 -7 -4 -15z"/>
<path d="M6191 1694 c0 -11 3 -14 6 -6 3 7 2 16 -1 19 -3 4 -6 -2 -5 -13z"/>
<path d="M5490 1653 c0 -5 -7 -46 -16 -93 -9 -47 -18 -138 -20 -202 -3 -94 -8
-123 -24 -151 -22 -38 -41 -165 -22 -153 7 4 15 -9 23 -36 9 -34 9 -52 -2 -88
-8 -26 -14 -99 -15 -170 -1 -74 -7 -137 -15 -155 -16 -39 -14 -32 -23 -100
-12 -100 -14 -109 -21 -128 -17 -40 33 -100 85 -101 12 -1 15 -18 14 -95 0
-52 2 -88 4 -80 3 8 16 26 30 42 14 15 22 27 16 27 -5 0 -4 4 3 8 6 4 13 23
14 42 4 51 -2 147 -8 133 -4 -12 -13 -8 -61 23 -2 1 -4 9 -6 17 -1 8 -8 22
-15 31 -20 24 -40 118 -30 143 4 12 17 24 27 27 31 10 38 84 12 132 -24 45
-26 96 -5 114 8 7 15 20 15 28 0 9 12 28 27 44 l26 28 -28 56 -29 57 19 61
c18 60 24 218 10 274 -3 12 -1 22 5 22 5 0 10 -14 10 -32 0 -17 3 -29 6 -25 9
9 10 307 2 307 -5 0 -8 -3 -8 -7z m-13 -425 c-3 -8 -6 -5 -6 6 -1 11 2 17 5
13 3 -3 4 -12 1 -19z m-60 -870 c-3 -8 -6 -5 -6 6 -1 11 2 17 5 13 3 -3 4 -12
1 -19z m68 -63 c43 -63 39 -88 -5 -35 -30 36 -55 90 -41 90 4 0 25 -25 46 -55z
m-2 -59 c4 -10 1 -13 -9 -9 -7 3 -14 9 -14 14 0 14 17 10 23 -5z"/>
<path d="M5533 1585 c0 -33 2 -45 4 -27 2 18 2 45 0 60 -2 15 -4 0 -4 -33z"/>
<path d="M6242 1610 c0 -14 2 -19 5 -12 2 6 2 18 0 25 -3 6 -5 1 -5 -13z"/>
<path d="M6201 1524 c0 -11 3 -14 6 -6 3 7 2 16 -1 19 -3 4 -6 -2 -5 -13z"/>
<path d="M1150 1500 c0 -11 5 -20 10 -20 6 0 10 9 10 20 0 11 -4 20 -10 20 -5
0 -10 -9 -10 -20z"/>
<path d="M1131 1424 c0 -11 3 -14 6 -6 3 7 2 16 -1 19 -3 4 -6 -2 -5 -13z"/>
<path d="M1131 1374 c0 -11 3 -14 6 -6 3 7 2 16 -1 19 -3 4 -6 -2 -5 -13z"/>
<path d="M5502 1320 c0 -14 2 -19 5 -12 2 6 2 18 0 25 -3 6 -5 1 -5 -13z"/>
<path d="M2351 1294 c0 -11 3 -14 6 -6 3 7 2 16 -1 19 -3 4 -6 -2 -5 -13z"/>
<path d="M1150 1160 c0 -5 5 -10 10 -10 6 0 10 5 10 10 0 6 -4 10 -10 10 -5 0
-10 -4 -10 -10z"/>
<path d="M2420 1141 c0 -7 11 -26 25 -43 14 -16 25 -24 25 -16 -1 18 -50 77
-50 59z"/>
<path d="M2471 1050 c0 -8 4 -22 9 -30 12 -18 12 -2 0 25 -6 13 -9 15 -9 5z"/>
<path d="M1202 960 c0 -14 2 -19 5 -12 2 6 2 18 0 25 -3 6 -5 1 -5 -13z"/>
<path d="M6201 963 c-10 -20 -8 -21 39 -25 40 -2 50 0 54 15 4 18 -9 24 -19 7
-10 -16 -43 -12 -53 7 -9 15 -11 14 -21 -4z"/>
<path d="M2508 918 c-5 -62 1 -79 36 -97 14 -8 25 -17 24 -20 0 -3 0 -19 1
-36 1 -23 3 -27 11 -15 12 18 12 2 0 -25 -6 -14 -9 -15 -10 -5 0 10 -12 2 -31
-20 -24 -29 -31 -32 -39 -20 -8 12 -10 11 -10 -7 0 -21 1 -21 55 -8 49 11 57
11 66 -4 20 -32 -1 80 -30 157 -35 94 -60 152 -65 152 -2 0 -6 -24 -8 -52z"/>
<path d="M6077 963 c-11 -11 -8 -23 6 -23 8 0 14 7 14 15 0 16 -9 19 -20 8z"/>
<path d="M6136 955 c4 -8 10 -15 15 -15 5 0 9 7 9 15 0 8 -7 15 -15 15 -9 0
-12 -6 -9 -15z"/>
<path d="M6000 946 c0 -9 5 -16 10 -16 6 0 10 4 10 9 0 6 -4 13 -10 16 -5 3
-10 -1 -10 -9z"/>
<path d="M6315 940 c-17 -7 -15 -9 13 -9 17 -1 32 4 32 9 0 12 -17 12 -45 0z"/>
<path d="M5910 930 c0 -5 5 -10 11 -10 5 0 7 5 4 10 -3 6 -8 10 -11 10 -2 0
-4 -4 -4 -10z"/>
<path d="M6388 923 c7 -3 16 -2 19 1 4 3 -2 6 -13 5 -11 0 -14 -3 -6 -6z"/>
<path d="M2609 603 c-6 -21 -20 -49 -30 -62 -25 -32 -24 -46 7 -60 16 -7 24
-18 22 -29 -3 -15 -19 -17 -163 -15 -232 3 -141 -20 129 -32 48 -2 90 -6 95
-9 9 -6 8 -63 -2 -73 -4 -3 3 -19 14 -35 17 -24 21 -45 22 -133 2 -124 -3
-134 -62 -117 -21 7 -62 28 -89 47 -44 30 -56 33 -98 29 -27 -2 -62 -8 -79
-14 -22 -6 -13 -7 36 -3 64 5 67 4 161 -46 72 -38 106 -51 138 -51 39 0 42 2
37 22 -6 24 -23 147 -32 236 -7 69 -20 130 -46 222 -11 41 -25 94 -31 118 -5
23 -11 42 -13 42 -2 0 -9 -17 -16 -37z"/>
<path d="M7567 508 c-121 -120 -177 -196 -177 -237 0 -24 6 -30 40 -40 42 -13
243 -50 248 -46 1 1 1 99 0 217 l-3 214 -108 -108z"/>
<path d="M2135 540 l-60 -7 81 -1 c45 -1 110 -4 145 -7 47 -4 56 -3 34 4 -44
13 -131 18 -200 11z"/>
<path d="M5341 414 c0 -11 3 -14 6 -6 3 7 2 16 -1 19 -3 4 -6 -2 -5 -13z"/>
<path d="M5456 393 c5 -5 12 -12 16 -18 4 -6 8 -2 8 8 0 9 -7 17 -17 17 -9 0
-12 -3 -7 -7z"/>
<path d="M1450 362 c0 -11 6 -22 14 -25 10 -4 12 0 9 14 -7 27 -23 34 -23 11z"/>
<path d="M1230 351 c0 -6 5 -13 10 -16 6 -3 10 1 10 9 0 9 -4 16 -10 16 -5 0
-10 -4 -10 -9z"/>
<path d="M6450 342 c-29 -14 -37 -25 -44 -60 -12 -59 7 -142 40 -173 14 -13
37 -43 51 -66 21 -36 30 -43 55 -43 27 0 30 3 24 22 -15 56 -56 228 -66 281
-6 31 -14 57 -18 57 -4 0 -23 -8 -42 -18z"/>
<path d="M2682 220 c0 -14 2 -19 5 -12 2 6 2 18 0 25 -3 6 -5 1 -5 -13z"/>
<path d="M2300 70 c-8 -5 -10 -10 -5 -10 6 0 17 5 25 10 8 5 11 10 5 10 -5 0
-17 -5 -25 -10z"/>
<path d="M5451 43 c-1 -36 2 -43 18 -43 10 0 26 12 36 26 16 25 16 26 -2 20
-21 -6 -37 2 -46 24 -3 8 -6 -4 -6 -27z"/>
</g>
</svg>
